# xmcd CD database file
#
# Track frame offsets:
#	150
#	14588
#	32866
#	47478
#	64620
#	78173
#	95021
#	113242
#	131322
#	147200
#	165406
#	181858
#
# Disc length: 2688 seconds
#
# Revision: 0
# Processed by: cddbd v1.5.2PL0 Copyright (c) Steve Scherf et al.
# Submitted via: CDex 1.51
#
DISCID=930a7e0c
DTITLE=Katie Melua - Pictures
DYEAR=2007
DGENRE=Jazz
TTITLE0=Mary Pickford
TTITLE1=It's All In My Head
TTITLE2=If The Light Go Out
TTITLE3=What I Miss About You
TTITLE4=Spellbound
TTITLE5=What It Says On The Tin
TTITLE6=Scary Films
TTITLE7=Perfect Circle
TTITLE8=Ghost Town
TTITLE9=If You Were A Sail Boat
TTITLE10=Dirty Dice
TTITLE11=In My Secret Life
EXTD=YEAR: 2007
EXTT0=
EXTT1=
EXTT2=
EXTT3=
EXTT4=
EXTT5=
EXTT6=
EXTT7=
EXTT8=
EXTT9=
EXTT10=
EXTT11=
PLAYORDER=
